inDegrees=no
num_controls=7
num_derivatives=13
num_iterations=123
num_multipliers=7
num_parameters=0
num_slacks=7
num_states=26
objective=5.581113
objective_accelerations=0.427459
objective_balance=0.044177
objective_effort=0.417485
objective_height=4.620143
objective_ligament=0.071849
solver_duration=1274.531262
status=Solve_Succeeded
success=true
DataType=double
version=3
OpenSimVersion=4.4-2022-07-23-0e9fedc
endheader
time	/jointset/ground_pelvis/pelvis_tilt/value	/jointset/ground_pelvis/pelvis_tx/value	/jointset/ground_pelvis/pelvis_ty/value	/jointset/hip_l/hip_flexion_l/value	/jointset/hip_l/hip_adduction_l/value	/jointset/hip_l/hip_rotation_l/value	/jointset/back/lumbar_extension/value	/jointset/patellofemoral_l/patellar_flexion_l/value	/jointset/knee_l/knee_flexion_l/value	/jointset/knee_l/knee_adduction_l/value	/jointset/knee_l/knee_rotation_l/value	/jointset/ankle_l/ankle_angle_l/value	/jointset/subtalar_l/subtalar_angle_l/value	/jointset/ground_pelvis/pelvis_tilt/speed	/jointset/ground_pelvis/pelvis_tx/speed	/jointset/ground_pelvis/pelvis_ty/speed	/jointset/hip_l/hip_flexion_l/speed	/jointset/hip_l/hip_adduction_l/speed	/jointset/hip_l/hip_rotation_l/speed	/jointset/back/lumbar_extension/speed	/jointset/patellofemoral_l/patellar_flexion_l/speed	/jointset/knee_l/knee_flexion_l/speed	/jointset/knee_l/knee_adduction_l/speed	/jointset/knee_l/knee_rotation_l/speed	/jointset/ankle_l/ankle_angle_l/speed	/jointset/subtalar_l/subtalar_angle_l/speed	/forceset/tau_hip_flexion_l	/forceset/tau_hip_adduction_l	/forceset/tau_hip_rotation_l	/forceset/tau_knee_flexion_l	/forceset/tau_ankle_angle_l	/forceset/tau_subtalar_angle_l	/forceset/tau_lumbar_extension	lambda_cid13_p0	lambda_cid13_p1	lambda_cid13_p2	lambda_cid13_p3	lambda_cid13_p4	lambda_cid13_p5	lambda_cid14_p0	/jointset/ground_pelvis/pelvis_tilt/accel	/jointset/ground_pelvis/pelvis_tx/accel	/jointset/ground_pelvis/pelvis_ty/accel	/jointset/hip_l/hip_flexion_l/accel	/jointset/hip_l/hip_adduction_l/accel	/jointset/hip_l/hip_rotation_l/accel	/jointset/back/lumbar_extension/accel	/jointset/patellofemoral_l/patellar_flexion_l/accel	/jointset/knee_l/knee_flexion_l/accel	/jointset/knee_l/knee_adduction_l/accel	/jointset/knee_l/knee_rotation_l/accel	/jointset/ankle_l/ankle_angle_l/accel	/jointset/subtalar_l/subtalar_angle_l/accel	gamma_cid13_p0	gamma_cid13_p1	gamma_cid13_p2	gamma_cid13_p3	gamma_cid13_p4	gamma_cid13_p5	gamma_cid14_p0
1.5	0.05694134301917404	0.01466112894192159	0.8742784392138169	0.5329628179483952	-0.3214511561689731	-0.1564171613008721	-0.7798443083583435	0.703073933495963	0.7030739334959998	-0.1130538834755462	-0.1745321799433237	0.1665074217177279	0.03071497836705526	0.1944428088104984	0.1885045455094287	0.3275840535327849	-1.609641229933313	0.09877238381039211	-0.5898948887333305	0.8415393412323717	-1.798233959867359	-1.798233959867256	-0.1209584490061475	3.862843112795472e-06	-0.4918648849276214	-0.06309340969461559	-0.1597826690714922	0.04238605541456054	-0.004609367482382558	-0.2177603722784898	0.04255465190009595	0.02516462021260764	0.2556607689970726	-29.26792697595043	-8.058088402386856	3.404634946098893	-3.44205769842147	-674.0789618149422	-63.52369193699505	-17.88870338095288	-0.169081035666826	0.4677909145582322	-0.5149977066985437	-0.4263301776185302	0.3910433070952747	-0.2965313194897762	1.683120604415417	-0.8457323129975975	-0.8457323129975929	-0.269411925184207	0.03304310372518687	-0.2317354623298905	0.378069836368036	6.799097007847182e-08	1.251882637066616e-06	-1.426747978663618e-07	1.514178018510093e-07	1.393220663272831e-07	5.202886915126104e-07	1.2864966589827e-07
1.51	0.05887719289890737	0.01656940180731697	0.8775279024981897	0.5168467196643989	-0.3204443585951715	-0.1623316552638541	-0.7713458874051463	0.6850515445955341	0.6850515445955837	-0.1142771171597389	-0.1745320896796092	0.1615778008464864	0.03010253659579289	0.1927084969951716	0.1931311009911728	0.3222467395929318	-1.613382325239609	0.1025853265682777	-0.5929469649155028	0.8580363997476114	-1.806000748548847	-1.806000748548812	-0.1236794638016228	1.176146277915987e-05	-0.4939746235556184	-0.05937446262686764	-0.1538387655369562	0.04115095407772276	-0.00456347828872643	-0.2145208488058132	0.04416652272029695	0.02453715572227861	0.2497018736880856	-28.59006663733108	-7.962746507632358	3.456230058761852	-3.553917551027991	-670.7496081873643	-63.59819523494878	-18.49144483185941	-0.1784106041692265	0.4572817975293267	-0.5523543593949747	-0.3185896319045801	0.3760256940020871	-0.3008794823317504	1.616731026432206	-0.7057182081721968	-0.7057182081824001	-0.2719261801513972	-0.0157296866745266	-0.1878554152733248	0.3716969388092842	6.318452246165709e-08	1.267248848079606e-06	-1.561875630379778e-07	1.601174673276405e-07	1.247234839584714e-07	5.255333628466815e-07	1.322233528340114e-07
1.52	0.0607951387905564	0.01852337901403978	0.8807221414188108	0.5006990923423899	-0.3193995104070108	-0.1682749367316149	-0.762685749356526	0.6669587745958081	0.6669587745958535	-0.1155272569765838	-0.1745319990152172	0.1566296301185169	0.02952786225457423	0.1908620111916687	0.1976454137749131	0.3165391807824249	-1.615947037536677	0.1063825066808379	-0.5956523896877042	0.8738827603169792	-1.812310179728249	-1.812310179728282	-0.1263396755339834	3.942971968354018e-06	-0.4955748562731681	-0.05553992368587651	-0.1478948620024448	0.03991585274087829	-0.004517589095169057	-0.2112813253331403	0.04577839354049046	0.02390969123192735	0.2437429783790805	-27.91626079206911	-7.867249844737296	3.508434906713155	-3.680905689081058	-667.4979972047648	-63.70093939956829	-19.07662341732491	-0.1915158333017832	0.4453423749572833	-0.5890466808293013	-0.1910535757728343	0.3878907780302256	-0.2272010374955724	1.552981015241235	-0.5542608125804399	-0.5542608125804428	-0.2572513125612487	0.02989968162973347	-0.1298342802406151	0.4011882110165989	5.695673433532262e-08	1.281586254330492e-06	-1.553479739284145e-07	1.669076356768637e-07	1.134154627710641e-07	5.252306297511943e-07	1.334816864944539e-07
1.53	0.06269399743573092	0.02052191641574312	0.8838575122170612	0.4845317550104792	-0.3183167815253022	-0.174243544306223	-0.7538703924073386	0.6488102266873663	0.6488102266873995	-0.1168036877385206	-0.1745320593664144	0.1516680368641895	0.02899211236242646	0.1888882680733509	0.2020408388611439	0.3104797246702127	-1.617323456744862	0.1101569645027404	-0.5980053523250252	0.8890766420495237	-1.817155640731021	-1.817155640730996	-0.1289422162541407	-1.470807750539624e-05	-0.4966571919826607	-0.05159429263922302	-0.141869044325177	0.03851577909286882	-0.004519144827027935	-0.2082471589720047	0.04758073899242419	0.02325518453069582	0.2377604627540271	-27.19494734917816	-7.765210722817505	3.556036843384769	-3.825087689183271	-664.436409486835	-63.83060497562246	-19.64033615040103	-0.2035269725330813	0.4334932628197986	-0.6226629217555623	-0.08139853556942191	0.3711419795799669	-0.2296577763852154	1.485793631893704	-0.4131508869285423	-0.4131508869196946	-0.2609133780692793	-0.01757715701142231	-0.08440637098195476	0.3934246089455476	4.921877191762344e-08	1.294830555521643e-06	-1.392590083950982e-07	1.71668963328216e-07	1.05603662838899e-07	5.190337794493017e-07	1.322799572998913e-07
1.54	0.06457247396544054	0.02256377820578225	0.8869306348851224	0.4683565609980395	-0.3171965243263138	-0.1802337442871158	-0.744906456264899	0.6306205317403303	0.6306205317403581	-0.1181059754929161	-0.1745322721598457	0.1466982256218309	0.02849625359223634	0.186785588097557	0.2063102914420683	0.3040895547444816	-1.617518373642157	0.1138881701370414	-0.5999708709437432	0.9035985989673412	-1.820539587445909	-1.820539587445825	-0.1315110740273548	-2.654547799765521e-05	-0.4972184538792929	-0.04756169929433874	-0.1358432266479519	0.03711570544483281	-0.00452070055877958	-0.2052129926108933	0.04938308444434512	0.02260067782942912	0.2317779471289494	-26.47849554898833	-7.662057841022404	3.603161737496816	-3.980976901158904	-661.4644338188469	-63.98695880245803	-20.17905484511403	-0.2173032047967384	0.4201478738958162	-0.6551894435330813	0.04524688640515602	0.3792403405099544	-0.1497122337749547	1.418596052295994	-0.2619579550034636	-0.2619579550034649	-0.2505147231725746	0.03126241142609076	-0.02561951766873577	0.4185806706627093	3.774724470920912e-08	1.297608205423938e-06	-1.059059031858606e-07	1.762235829060085e-07	9.464701567457617e-08	5.01160934557948e-07	1.27820452495941e-07
1.55	0.06642925230248208	0.02464764836026183	0.8899382547581594	0.4521854552486591	-0.3160391197105685	-0.1862417228404509	-0.7358007068194564	0.612404417966356	0.6124044179663445	-0.1194335828505582	-0.1745325613420837	0.1417254482962243	0.02804123770708174	0.184550502629648	0.210436871778613	0.2973852531756365	-1.616500818115987	0.1175831947558409	-0.6015562277274703	0.9174290546470751	-1.822431663425749	-1.822431663425714	-0.1340032601793592	-2.825495213010596e-05	-0.4972491834508714	-0.04342894283822833	-0.1298395926016689	0.03573590745087165	-0.004562621214940605	-0.2021238542641601	0.05102629877452387	0.02188184373269219	0.2258123595754901	-25.82648818651531	-7.516616301129102	3.640040424284688	-4.046631235232645	-658.6351803645144	-64.08186087580266	-20.68921151450653	-0.2295574754335337	0.4049195493172615	-0.6854111232938735	0.1602909065134734	0.3630462892813282	-0.1525543990037778	1.346935004983958	-0.1151298398255175	-0.1151298398327823	-0.2472930629442392	-0.0154407610454141	0.02140784465812733	0.41230382268211	2.197400154627543e-08	1.288326452754293e-06	-5.266150661088857e-08	1.8054003883383e-07	8.006695756885438e-08	4.698353132917812e-07	1.196074236203051e-07
1.56	0.06826309053332158	0.02677198560526429	0.8928773594935615	0.4360305812586977	-0.3148450822952931	-0.1922634763612936	-0.7265603198813817	0.5941769239485089	0.5941769239484612	-0.1207858565700617	-0.1745327782459217	0.1367550051792135	0.02762788552440756	0.1821975668558903	0.2144037095466414	0.2903865272174934	-1.61427202175818	0.1212147300433049	-0.6027258644444872	0.9305260974936492	-1.822815636219639	-1.822815636219652	-0.1364443464005621	-1.208979476235563e-05	-0.4967516121600335	-0.0392289587982443	-0.1238359585554261	0.03435610945688577	-0.004604541871024517	-0.1990347159174476	0.05266951310469064	0.02116300963592248	0.2198467720220077	-25.18003305766988	-7.369247513132264	3.675521320763846	-4.120487495200745	-655.9056324603952	-64.19858356559642	-21.16728039286389	-0.2408732659661861	0.3881993601923552	-0.7140743213926949	0.287495052732481	0.3665424742429095	-0.06656822043283211	1.271913485664239	0.03966268218649729	0.03966268218649592	-0.2402947370122223	0.03483733772622444	0.08004065481431842	0.4320261874373951	1.858055111965168e-08	1.295029184624036e-06	-5.46110005886607e-08	1.808309244062952e-07	8.259188858291212e-08	4.689041104102033e-07	1.198188087014739e-07
1.57	0.07007281413625822	0.02893510513533372	0.895745054418005	0.4199041667472187	-0.3136151193012531	-0.198294805122396	-0.7171930056685835	0.5759532440835533	0.5759532440835279	-0.1221623650654586	-0.1745327807936301	0.1317921452823153	0.0272567802921579	0.1797268123471042	0.2181838854219373	0.2831077281484306	-1.610787217903077	0.1247668099072042	-0.6034742835421684	0.9427768519499727	-1.821647338596585	-1.821647338596616	-0.1388341622121388	8.34731634630954e-06	-0.4957303962377495	-0.03497990100347496	-0.1174462849681267	0.03274487238361892	-0.004715843243424629	-0.1963219342889148	0.0546842293875902	0.02036831733675544	0.2135342327271364	-24.42040557702892	-7.200807903908849	3.698571638800985	-4.181986482202982	-653.1685163619641	-64.32711556403626	-21.60978387240859	-0.2532364159997479	0.3675147158837307	-0.7414680756601539	0.4125117388669264	0.3477388963043868	-0.06901753329478673	1.177672458513967	0.1963356795612891	0.1963356795587452	-0.2346388553839723	-0.01487582305033773	0.1266919281099925	0.4229822845091993	3.06618416134152e-08	1.321712522168015e-06	-1.255528577573623e-07	1.760898470345652e-07	1.06498055996694e-07	5.059659305093609e-07	1.305607112286485e-07
1.58	0.07185721821958371	0.03113494402709393	0.8985386242765588	0.4038193080116894	-0.3123499958778004	-0.204331625830252	-0.7077079807046419	0.5577494316702668	0.5577494316702635	-0.1235620344894068	-0.1745326835144259	0.1268422035180745	0.0269284929796584	0.1771336629316859	0.2217475818847974	0.2755615140395583	-1.605960866569251	0.1282468159247399	-0.6038242537942102	0.954068247722162	-1.818842145885669	-1.818842145885716	-0.1410765321098577	7.875593312045204e-06	-0.4941679856284886	-0.03066537484820827	-0.1110566113808431	0.03113363531034411	-0.00482714461581531	-0.1936091526603856	0.0566989456704832	0.01957362503756612	0.2072216934322523	-23.66627442125808	-7.030413446458042	3.720177199483581	-4.253332375628983	-650.5312002959736	-64.48101474019053	-22.013373542595	-0.265352247292321	0.3449034777049967	-0.7675573293546417	0.5558045484771483	0.352127704970218	0.01312154869504517	1.080041748837627	0.3670416997591052	0.3670416997590998	-0.210805554240641	0.03065557089765121	0.1882795922094616	0.4451198595368031	5.634866735379061e-08	1.351136254020451e-06	-2.595217926074011e-07	1.663951125549471e-07	1.457785511990862e-07	5.768328750589568e-07	1.497444290173292e-07
